<?xml version="1.0" standalone="no"?><!DOCTYPE svg PUBLIC "-//W3C//DTD SVG 1.1//EN" "http://www.w3.org/Graphics/SVG/1.1/DTD/svg11.dtd"><svg t="1614433537584" class="icon" viewBox="0 0 1024 1024" version="1.1" xmlns="http://www.w3.org/2000/svg" p-id="4297" xmlns:xlink="http://www.w3.org/1999/xlink" width="128" height="128"><defs><style type="text/css"></style></defs><path d="M446.836 90.764v363.054H195.491c-34.91 0-58.182-39.563-37.236-69.818L365.382 65.164c23.273-34.91 81.454-18.619 81.454 25.6z m486.4 365.381H567.855V202.473c0-34.91 39.563-58.182 69.818-37.237l318.836 207.128c37.236 25.6 20.946 83.781-23.273 83.781zM565.527 933.236V567.855H819.2c34.91 0 58.182 39.563 37.236 69.818L649.31 956.509c-25.6 37.236-83.782 20.946-83.782-23.273zM90.764 567.855h363.054v253.672c0 34.91-39.563 58.182-69.818 37.237L67.49 651.636c-37.235-25.6-20.945-83.781 23.274-83.781z" fill="#6269FC" p-id="4298"></path></svg>
